<svg xmlns="http://www.w3.org/2000/svg" version="1.1" xmlns:xlink="http://www.w3.org/1999/xlink" xmlns:svgjs="http://svgjs.com/svgjs" width="166.66" height="119.24"><svg xmlns="http://www.w3.org/2000/svg" version="1.0" viewBox="58.22 19.12 166.66 119.24"><g fill="red" stroke-width="0"><path d="M166.1 20.6c-20.5 5.5-34.1 22-36 43.6-.4 4.2-.9 7.9-1.1 8.1-.3.3-5.7 3.3-12 6.8-6.3 3.4-11.6 6.6-11.8 7.1-.2.4-.9.8-1.5.8-.7 0-10 4.9-20.7 10.8l-19.5 10.7-2.3 6.8c-3.2 9.6-3.8 15-1.9 16.9.8.8 4.9 2.7 9.1 4.2 9.5 3.3 11.1 2.8 12.1-4.4.4-2.7 1.1-5 1.7-5 .6 0 3.2.8 5.8 1.7 6.1 2.1 7.6 1.1 8.5-5.8.5-3.2 1.1-4.9 1.9-4.6.6.3 3 1.3 5.4 2.2 5.3 2.2 6.5 1.3 8.6-5.9l1.6-5.3 6 2.1 6.1 2.1 8.8-4.8c4.9-2.6 9.8-4.7 11-4.7 1.1 0 4.2 1.4 6.8 3 19.5 12.4 47.4 7.6 61.7-10.7 15.2-19.3 13.7-45.9-3.4-63.2-11.7-11.8-29.2-16.7-44.9-12.5zm27.9 4.3c11 4.2 20.9 14.1 25.1 25.1 1.2 3.1 2.4 9.2 2.8 14 .5 7.2.3 9.6-1.6 15.4-4.2 13-12.3 22.4-24 27.8-14.1 6.6-33.5 4.8-45.2-4.3-3.6-2.9-6.5-2.3-16.1 2.8l-8.7 4.7-6.1-1.8c-3.3-1-6.7-1.6-7.5-1.3-.8.3-2 2.8-2.7 5.6-.7 2.8-1.6 5.3-2 5.6-.4.3-3.1-.5-5.9-1.7-6.1-2.5-6.9-2-8.2 4.8-.5 2.6-1.1 5-1.4 5.2-.3.3-3-.3-6-1.3-6.5-2.3-7.3-1.8-8.6 5.1-.5 2.6-1.1 4.9-1.4 5.2-.2.2-3.8-.8-8-2.3-6.5-2.4-7.5-3.1-7.5-5.1 0-2.4 3.4-15.6 4.4-17.3.3-.5 6.6-4.2 13.8-8.2 42.5-23.3 49.5-27.3 51.6-29.5 1.7-1.9 2.2-3.7 2.2-7.7.1-19.7 14.4-37.8 33.8-42.7 6.1-1.5 21-.5 27.2 1.9z"></path><path d="M189.2 48.5c-3.8 1.7-6.6 7.1-5.6 11 .3 1.4 2 3.7 3.7 5.1 2.6 2.2 3.8 2.5 7.1 2.1 8.2-1.1 11.4-9.7 5.9-15.6-3.4-3.7-6.8-4.5-11.1-2.6zm8.9 2.8c6.3 4.8.1 15.6-7.4 12.8-4.8-1.9-6.3-8.5-2.7-12.1 2.3-2.3 7.6-2.6 10.1-.7z"></path></g></svg><style>@media (prefers-color-scheme: light) { :root { filter: none; } }
</style></svg>